<svg height="16" viewBox="0 0 16 16" width="16" xmlns="http://www.w3.org/2000/svg"><path d="m5 5h5c.5522847 0 1 .44771525 1 1v5h1v-7h-7zm6 7v1c0 .5522847-.4477153 1-1 1h-7c-.55228475 0-1-.4477153-1-1v-7c0-.55228475.44771525-1 1-1h1v-1c0-.55228475.44771525-1 1-1h1v-1c0-.55228475.44771525-1 1-1h7c.5522847 0 1 .44771525 1 1v7c0 .55228475-.4477153 1-1 1h-1v1c0 .5522847-.4477153 1-1 1zm2-3h1v-7h-7v1h5c.5522847 0 1 .44771525 1 1zm-8.09190493 2.5879844c.12806751.115663.21347095.2049088.38505603.2049088.17158509 0 .28475625-.0892458.40367726-.2049088.07928067-.0771087 1.31133103-1.3219222 3.69615108-3.73444037.19354598-.19555097.19273394-.51072922-.00363426-.70709742-.19526215-.19526215-.51184464-.19526215-.70710678 0l-3.41421356 3.41421359-1.41421357-1.41421359c-.19526214-.19526215-.51184463-.19526215-.70762254.00000019-.19511962.19540457-.19488862.51198697.00051595.70710659 1.08888192 1.07917861 1.67601205 1.65732231 1.76139039 1.73443101z" fill="#293040" fill-rule="evenodd"/></svg>